<mxfile host="app.diagrams.net" modified="2022-02-12T12:01:39.646Z" agent="5.0 (Windows NT 10.0; Win64; x64) AppleWebKit/537.36 (KHTML, like Gecko) Chrome/98.0.4758.80 Safari/537.36 Edg/98.0.1108.50" etag="zvA9vLJpWnHtsnSycNC6" version="16.5.6" type="github">
  <diagram id="sXA_peli1Wi5wcpvEn6-" name="Page-1">
    <mxGraphModel dx="597" dy="635" grid="1" gridSize="10" guides="1" tooltips="1" connect="1" arrows="1" fold="1" page="1" pageScale="1" pageWidth="850" pageHeight="1100" math="0" shadow="0">
      <root>
        <mxCell id="0" />
        <mxCell id="1" parent="0" />
        <mxCell id="2dVahnd8LIlWrf2m8G_E-9" style="edgeStyle=orthogonalEdgeStyle;rounded=0;orthogonalLoop=1;jettySize=auto;html=1;entryX=0.5;entryY=0;entryDx=0;entryDy=0;" edge="1" parent="1" source="2dVahnd8LIlWrf2m8G_E-1" target="2dVahnd8LIlWrf2m8G_E-2">
          <mxGeometry relative="1" as="geometry" />
        </mxCell>
        <mxCell id="2dVahnd8LIlWrf2m8G_E-1" value="START" style="ellipse;whiteSpace=wrap;html=1;" vertex="1" parent="1">
          <mxGeometry x="295" y="10" width="100" height="60" as="geometry" />
        </mxCell>
        <mxCell id="2dVahnd8LIlWrf2m8G_E-7" style="edgeStyle=orthogonalEdgeStyle;rounded=0;orthogonalLoop=1;jettySize=auto;html=1;entryX=0.5;entryY=0;entryDx=0;entryDy=0;" edge="1" parent="1" source="2dVahnd8LIlWrf2m8G_E-2" target="2dVahnd8LIlWrf2m8G_E-5">
          <mxGeometry relative="1" as="geometry" />
        </mxCell>
        <mxCell id="2dVahnd8LIlWrf2m8G_E-2" value="Enter password to verify access" style="shape=parallelogram;perimeter=parallelogramPerimeter;whiteSpace=wrap;html=1;fixedSize=1;" vertex="1" parent="1">
          <mxGeometry x="220" y="110" width="250" height="50" as="geometry" />
        </mxCell>
        <mxCell id="2dVahnd8LIlWrf2m8G_E-12" style="edgeStyle=orthogonalEdgeStyle;rounded=0;orthogonalLoop=1;jettySize=auto;html=1;" edge="1" parent="1" source="2dVahnd8LIlWrf2m8G_E-5" target="2dVahnd8LIlWrf2m8G_E-13">
          <mxGeometry relative="1" as="geometry">
            <mxPoint x="345" y="320" as="targetPoint" />
          </mxGeometry>
        </mxCell>
        <mxCell id="2dVahnd8LIlWrf2m8G_E-18" style="edgeStyle=orthogonalEdgeStyle;rounded=0;orthogonalLoop=1;jettySize=auto;html=1;" edge="1" parent="1" source="2dVahnd8LIlWrf2m8G_E-5">
          <mxGeometry relative="1" as="geometry">
            <mxPoint x="490" y="240" as="targetPoint" />
          </mxGeometry>
        </mxCell>
        <mxCell id="2dVahnd8LIlWrf2m8G_E-5" value="if password=&#39;tea=PSUs&#39;" style="rhombus;whiteSpace=wrap;html=1;" vertex="1" parent="1">
          <mxGeometry x="260" y="200" width="170" height="80" as="geometry" />
        </mxCell>
        <mxCell id="2dVahnd8LIlWrf2m8G_E-13" value="verified" style="rounded=0;whiteSpace=wrap;html=1;" vertex="1" parent="1">
          <mxGeometry x="270" y="330" width="150" height="40" as="geometry" />
        </mxCell>
        <mxCell id="2dVahnd8LIlWrf2m8G_E-14" value="You do not have access" style="shape=parallelogram;perimeter=parallelogramPerimeter;whiteSpace=wrap;html=1;fixedSize=1;" vertex="1" parent="1">
          <mxGeometry x="480" y="220" width="210" height="40" as="geometry" />
        </mxCell>
        <mxCell id="2dVahnd8LIlWrf2m8G_E-15" value="NO" style="text;html=1;strokeColor=none;fillColor=none;align=center;verticalAlign=middle;whiteSpace=wrap;rounded=0;" vertex="1" parent="1">
          <mxGeometry x="420" y="210" width="60" height="30" as="geometry" />
        </mxCell>
        <mxCell id="2dVahnd8LIlWrf2m8G_E-17" value="YES" style="text;html=1;strokeColor=none;fillColor=none;align=center;verticalAlign=middle;whiteSpace=wrap;rounded=0;" vertex="1" parent="1">
          <mxGeometry x="295" y="290" width="60" height="30" as="geometry" />
        </mxCell>
      </root>
    </mxGraphModel>
  </diagram>
</mxfile>
